<svg id="maestro-seeklogo.com" xmlns="http://www.w3.org/2000/svg" width="80px" height="43.374" viewBox="0 0 56.946 43.374">
  <path id="Path_22" data-name="Path 22" d="M107.443,42.171H93.389V16.913h14.055Z" transform="translate(-71.943 -13.479)" fill="#6c6bbd"/>
  <path id="Path_23" data-name="Path 23" d="M19.853-142.17A16.036,16.036,0,0,1,25.988-154.8a15.993,15.993,0,0,0-9.927-3.435A16.062,16.062,0,0,0,0-142.17a16.062,16.062,0,0,0,16.061,16.063,15.993,15.993,0,0,0,9.927-3.434,16.036,16.036,0,0,1-6.135-12.629" transform="translate(0 158.233)" fill="#d32011"/>
  <path id="Path_24" data-name="Path 24" d="M153.986-142.17a16.062,16.062,0,0,1-16.061,16.063A16,16,0,0,1,128-129.541a16.034,16.034,0,0,0,6.136-12.629A16.034,16.034,0,0,0,128-154.8a16,16,0,0,1,9.928-3.435,16.062,16.062,0,0,1,16.061,16.063" transform="translate(-97.04 158.233)" fill="#0099df"/>
  <path id="Path_25" data-name="Path 25" d="M75.322-197.482a2.553,2.553,0,0,1,.755.116l-.326.874a1.937,1.937,0,0,0-.663-.107.956.956,0,0,0-1.039,1.1v2.392h-1.06v-4.265h1.05v.518a1.489,1.489,0,0,1,1.284-.625Zm-3.917.955H69.673v1.927c0,.428.173.714.7.714a2.163,2.163,0,0,0,.937-.241l.305.794a2.751,2.751,0,0,1-1.324.331c-1.254,0-1.691-.589-1.691-1.58v-1.944h-.989v-.848H68.6v-1.294h1.069v1.294h1.732v.848Zm-13.564.91a1.2,1.2,0,0,1,1.295-1.036,1.154,1.154,0,0,1,1.233,1.036Zm3.629.375a2.177,2.177,0,0,0-2.314-2.24,2.231,2.231,0,0,0-2.425,2.24,2.261,2.261,0,0,0,2.5,2.238,3.237,3.237,0,0,0,2-.6l-.52-.687a2.528,2.528,0,0,1-1.416.446,1.324,1.324,0,0,1-1.457-1.044h3.617c.01-.116.021-.232.021-.356Zm4.656-1.044a3.46,3.46,0,0,0-1.517-.367c-.581,0-.927.188-.927.5,0,.285.366.366.825.419l.5.062c1.06.135,1.7.527,1.7,1.277,0,.812-.815,1.392-2.221,1.392a3.877,3.877,0,0,1-2.11-.553l.5-.723a2.85,2.85,0,0,0,1.621.446c.723,0,1.111-.187,1.111-.518,0-.24-.275-.375-.856-.445l-.5-.062c-1.091-.135-1.682-.563-1.682-1.258,0-.848.8-1.365,2.028-1.365a4.045,4.045,0,0,1,1.986.446l-.458.75ZM79.2-196.6a1.806,1.806,0,0,0-.608.1,1.488,1.488,0,0,0-.485.282,1.307,1.307,0,0,0-.322.434,1.307,1.307,0,0,0-.117.557,1.3,1.3,0,0,0,.117.557,1.3,1.3,0,0,0,.322.434,1.489,1.489,0,0,0,.485.282,1.781,1.781,0,0,0,.608.1,1.778,1.778,0,0,0,.608-.1,1.485,1.485,0,0,0,.487-.282,1.3,1.3,0,0,0,.326-.434,1.3,1.3,0,0,0,.117-.557,1.307,1.307,0,0,0-.117-.557,1.3,1.3,0,0,0-.326-.434,1.484,1.484,0,0,0-.487-.282,1.8,1.8,0,0,0-.608-.1Zm0-.881a3.092,3.092,0,0,1,1.05.173,2.61,2.61,0,0,1,.835.474,2.183,2.183,0,0,1,.552.713,2.028,2.028,0,0,1,.2.895,2.028,2.028,0,0,1-.2.895,2.186,2.186,0,0,1-.552.714,2.628,2.628,0,0,1-.835.474,3.11,3.11,0,0,1-1.05.172,3.11,3.11,0,0,1-1.05-.172,2.6,2.6,0,0,1-.832-.474,2.208,2.208,0,0,1-.549-.714,2.024,2.024,0,0,1-.2-.895,2.024,2.024,0,0,1,.2-.895,2.2,2.2,0,0,1,.549-.713,2.579,2.579,0,0,1,.832-.474,3.091,3.091,0,0,1,1.05-.173Zm-27.546,2.24a1.368,1.368,0,0,1,1.478-1.365,1.367,1.367,0,0,1,1.467,1.365,1.366,1.366,0,0,1-1.467,1.364,1.367,1.367,0,0,1-1.478-1.364Zm3.944,0v-2.132H54.534v.518A1.957,1.957,0,0,0,53-197.482a2.289,2.289,0,0,0-2.435,2.24A2.29,2.29,0,0,0,53-193a1.957,1.957,0,0,0,1.538-.625v.518h1.059Zm-5.971,2.132v-2.677a1.707,1.707,0,0,0-1.915-1.7,1.984,1.984,0,0,0-1.712.759,1.861,1.861,0,0,0-1.611-.759,1.7,1.7,0,0,0-1.427.633v-.526H41.9v4.265h1.07v-2.364a1.066,1.066,0,0,1,1.192-1.134c.7,0,1.06.4,1.06,1.124v2.373h1.07v-2.364a1.075,1.075,0,0,1,1.192-1.134c.724,0,1.071.4,1.071,1.124v2.373Z" transform="translate(-33.392 236.348)" fill="#110f0d"/>
</svg>
